<svg xmlns="http://www.w3.org/2000/svg" width="61.122" height="53.389" viewBox="0 0 61.122 53.389"><defs><style>.a{fill:#2e2e2e;}</style></defs><g transform="translate(0 0)"><g transform="translate(0 0)"><path class="a" d="M60.835,45.9l-8.851-6.252V30.512A1.967,1.967,0,0,0,50.3,28.756H11.521a1.967,1.967,0,0,0-1.686,1.756v9.062L.632,45.9A1.545,1.545,0,0,0,0,47.02V80.388a2.037,2.037,0,0,0,1.756,1.756H60.062c.773,0,1.054-.913,1.054-1.756V47.021C61.116,46.6,61.186,46.177,60.835,45.9Zm-8.851-2.88,6.041,4.145-6.041,4.566ZM12.645,31.566H49.174V53.9L30.909,67.674,12.645,53.9V31.566Zm-2.81,11.38V51.8L3.793,47.161Zm-7.025,7.1,19.67,14.893L2.81,78.211ZM6.182,79.335,24.868,66.76l4.988,3.793a1.685,1.685,0,0,0,.983.351c.281,0,.422-.141.7-.351l5.2-4,18.9,12.785Zm52.124-1.616L39.058,64.793,58.306,50.041Z" transform="translate(0 -28.756)"/><path class="a" d="M137.242,99.484h6.322a1.4,1.4,0,1,0,0-2.81h-6.322a1.4,1.4,0,1,0,0,2.81Z" transform="translate(-117.572 -87.542)"/><path class="a" d="M137.242,146.5h22.479a1.4,1.4,0,0,0,0-2.81H137.242a1.4,1.4,0,1,0,0,2.81Z" transform="translate(-117.572 -128.24)"/><path class="a" d="M161.126,192.12a1.4,1.4,0,0,0-1.4-1.4H137.242a1.4,1.4,0,1,0,0,2.81h22.479A1.4,1.4,0,0,0,161.126,192.12Z" transform="translate(-117.572 -168.938)"/></g></g></svg>